<?xml version="1.0" encoding="UTF-8"?>
<!DOCTYPE svg PUBLIC "-//W3C//DTD SVG 1.1//EN" "http://www.w3.org/Graphics/SVG/1.1/DTD/svg11.dtd">
<svg xmlns="http://www.w3.org/2000/svg" version="1.1" width="231px" height="60px" style="shape-rendering:geometricPrecision; text-rendering:geometricPrecision; image-rendering:optimizeQuality; fill-rule:evenodd; clip-rule:evenodd" xmlns:xlink="http://www.w3.org/1999/xlink">
<g><path style="opacity:1" fill="#115bb3" d="M 5.5,-0.5 C 14.8333,-0.5 24.1667,-0.5 33.5,-0.5C 42.9394,3.3777 46.9394,10.3777 45.5,20.5C 44.8826,20.6107 44.3826,20.944 44,21.5C 43.7508,20.376 43.2508,19.376 42.5,18.5C 40.5764,18.8936 38.743,18.227 37,16.5C 36.0814,19.4016 35.2481,19.7349 34.5,17.5C 34.5181,13.3635 32.5181,10.8635 28.5,10C 20.8406,9.50031 13.1739,9.33365 5.5,9.5C 5.5,6.16667 5.5,2.83333 5.5,-0.5 Z"/></g>
<g><path style="opacity:0.76" fill="#114381" d="M 141.5,12.5 C 148.982,11.508 156.648,11.1746 164.5,11.5C 164.737,12.791 164.404,13.791 163.5,14.5C 156.576,12.5367 149.243,11.8701 141.5,12.5 Z"/></g>
<g><path style="opacity:0.442" fill="#0d2446" d="M -0.5,13.5 C -0.5,13.1667 -0.5,12.8333 -0.5,12.5C 9.68063,12.1726 19.6806,12.506 29.5,13.5C 21.8333,13.5 14.1667,13.5 6.5,13.5C 6.5,15.1667 6.5,16.8333 6.5,18.5C 4.28298,19.3686 1.94965,19.702 -0.5,19.5C -0.5,19.1667 -0.5,18.8333 -0.5,18.5C 1.16667,18.5 2.83333,18.5 4.5,18.5C 4.5,16.8333 4.5,15.1667 4.5,13.5C 2.83333,13.5 1.16667,13.5 -0.5,13.5 Z"/></g>
<g><path style="opacity:1" fill="#0e53a4" d="M 177.5,11.5 C 178.11,12.391 178.443,13.391 178.5,14.5C 176.303,14.4399 173.969,14.7732 171.5,15.5C 169.952,15.1788 169.285,14.1788 169.5,12.5C 172.084,10.8454 174.751,10.5121 177.5,11.5 Z"/></g>
<g><path style="opacity:0.966" fill="#0d488e" d="M 218.5,11.5 C 221.187,11.3359 223.854,11.5026 226.5,12C 227.381,12.7083 228.047,13.5416 228.5,14.5C 227.683,16.9686 227.183,19.6353 227,22.5C 226.329,23.2524 225.496,23.5858 224.5,23.5C 227.652,19.5906 226.986,16.5906 222.5,14.5C 221.516,17.4281 221.183,20.4281 221.5,23.5C 221.098,20.5234 220.098,17.8567 218.5,15.5C 218.5,15.1667 218.5,14.8333 218.5,14.5C 218.5,13.5 218.5,12.5 218.5,11.5 Z M 224.5,23.5 C 223.5,23.5 222.5,23.5 221.5,23.5C 221.183,20.4281 221.516,17.4281 222.5,14.5C 226.986,16.5906 227.652,19.5906 224.5,23.5 Z"/></g>
<g><path style="opacity:1" fill="#0078f8" d="M -0.5,13.5 C 1.16667,13.5 2.83333,13.5 4.5,13.5C 4.5,15.1667 4.5,16.8333 4.5,18.5C 2.83333,18.5 1.16667,18.5 -0.5,18.5C -0.5,16.8333 -0.5,15.1667 -0.5,13.5 Z"/></g>
<g><path style="opacity:1" fill="#0c4d9b" d="M 141.5,12.5 C 149.243,11.8701 156.576,12.5367 163.5,14.5C 162.167,14.5 160.833,14.5 159.5,14.5C 159.5,18.5 159.5,22.5 159.5,26.5C 158.167,26.5 156.833,26.5 155.5,26.5C 155.5,22.5 155.5,18.5 155.5,14.5C 151.629,14.185 147.962,14.5184 144.5,15.5C 144.5,16.5 144.5,17.5 144.5,18.5C 146.167,18.5 147.833,18.5 149.5,18.5C 148.198,20.0276 146.531,21.0276 144.5,21.5C 143.065,20.0867 142.065,18.42 141.5,16.5C 141.5,15.1667 141.5,13.8333 141.5,12.5 Z"/></g>
<g><path style="opacity:1" fill="#13428f" d="M 29.5,13.5 C 31.0769,15.9938 30.4103,17.8271 27.5,19C 20.3209,19.8213 13.3209,19.6546 6.5,18.5C 6.5,16.8333 6.5,15.1667 6.5,13.5C 14.1667,13.5 21.8333,13.5 29.5,13.5 Z"/></g>
<g><path style="opacity:0.29" fill="#062248" d="M 169.5,12.5 C 169.285,14.1788 169.952,15.1788 171.5,15.5C 170.699,17.0418 170.366,18.7085 170.5,20.5C 169.839,19.2825 169.172,17.9492 168.5,16.5C 167.817,16.8627 167.15,17.1961 166.5,17.5C 167.36,15.7121 168.36,14.0455 169.5,12.5 Z"/></g>
<g><path style="opacity:0.108" fill="#030b1a" d="M 217.5,15.5 C 217.833,15.5 218.167,15.5 218.5,15.5C 218.5,19.1667 218.5,22.8333 218.5,26.5C 220.5,26.5 222.5,26.5 224.5,26.5C 222.393,27.4682 220.059,27.8016 217.5,27.5C 217.768,25.901 217.434,24.5676 216.5,23.5C 216.5,23.1667 216.5,22.8333 216.5,22.5C 217.468,20.3926 217.802,18.0593 217.5,15.5 Z"/></g>
<g><path style="opacity:0.361" fill="#072349" d="M 190.5,14.5 C 191.391,15.1098 192.391,15.4431 193.5,15.5C 192.659,17.3792 192.325,19.3792 192.5,21.5C 190.686,14.7792 189.686,15.1125 189.5,22.5C 188.063,19.6697 188.396,17.003 190.5,14.5 Z"/></g>
<g><path style="opacity:0.344" fill="#041e3f" d="M 205.5,11.5 C 205.5,15.5 205.5,19.5 205.5,23.5C 204.833,23.1667 204.167,22.8333 203.5,22.5C 203.5,20.1667 203.5,17.8333 203.5,15.5C 204.167,14.1667 204.833,12.8333 205.5,11.5 Z"/></g>
<g><path style="opacity:0.988" fill="#094a9d" d="M 70.5,18.5 C 70.573,20.0269 69.9063,21.0269 68.5,21.5C 67.0813,20.5489 65.4147,20.2155 63.5,20.5C 62.6981,21.9516 62.1981,23.6183 62,25.5C 61.8138,22.9644 61.3138,20.631 60.5,18.5C 60.5,16.1667 60.5,13.8333 60.5,11.5C 63.5788,11.2601 66.5788,11.5934 69.5,12.5C 70.4656,14.396 70.7989,16.396 70.5,18.5 Z M 63.5,14.5 C 65.1033,14.3118 66.4366,14.8118 67.5,16C 65.5372,16.8442 64.2039,16.3442 63.5,14.5 Z"/></g>
<g><path style="opacity:0.071" fill="#071527" d="M 113.5,11.5 C 114.702,12.4054 116.036,12.4054 117.5,11.5C 116.833,12.5 116.167,13.5 115.5,14.5C 116.625,15.3478 116.625,16.3478 115.5,17.5C 114.539,19.2646 114.205,21.2646 114.5,23.5C 114.5,24.1667 114.5,24.8333 114.5,25.5C 114.5,26.1667 114.167,26.5 113.5,26.5C 113.5,26.1667 113.5,25.8333 113.5,25.5C 113.5,21.1667 113.5,16.8333 113.5,12.5C 113.5,12.1667 113.5,11.8333 113.5,11.5 Z"/></g>
<g><path style="opacity:0.971" fill="#0d4792" d="M 141.5,16.5 C 142.065,18.42 143.065,20.0867 144.5,21.5C 145.301,23.0418 145.634,24.7085 145.5,26.5C 144.167,26.5 142.833,26.5 141.5,26.5C 141.795,24.2646 141.461,22.2646 140.5,20.5C 139.1,19.9002 138.1,18.9002 137.5,17.5C 134.5,13.5 131.5,13.5 128.5,17.5C 128.44,16.9569 128.107,16.6236 127.5,16.5C 126.702,18.0777 126.202,19.7444 126,21.5C 124.708,20.2089 123.542,20.2089 122.5,21.5C 119.669,20.9213 117.336,19.588 115.5,17.5C 116.625,16.3478 116.625,15.3478 115.5,14.5C 116.167,13.5 116.833,12.5 117.5,11.5C 120.061,10.169 122.561,10.5023 125,12.5C 125.601,13.9653 125.101,14.9653 123.5,15.5C 117.047,14.7931 117.047,15.7931 123.5,18.5C 125.977,16.795 127.311,14.795 127.5,12.5C 133.961,8.98337 138.461,10.65 141,17.5C 141.399,17.2716 141.565,16.9382 141.5,16.5 Z"/></g>
<g><path style="opacity:0.016" fill="#020c18" d="M 144.5,15.5 C 146.361,16.8419 148.361,17.8419 150.5,18.5C 150.167,18.5 149.833,18.5 149.5,18.5C 147.833,18.5 146.167,18.5 144.5,18.5C 144.5,17.5 144.5,16.5 144.5,15.5 Z"/></g>
<g><path style="opacity:0.153" fill="#010b19" d="M 177.5,11.5 C 178.5,11.5 179.5,11.5 180.5,11.5C 180.5,16.5 180.5,21.5 180.5,26.5C 180.5,26.8333 180.5,27.1667 180.5,27.5C 179.833,27.1667 179.167,26.8333 178.5,26.5C 178.5,25.8333 178.5,25.1667 178.5,24.5C 179.833,21.1667 179.833,17.8333 178.5,14.5C 178.443,13.391 178.11,12.391 177.5,11.5 Z"/></g>
<g><path style="opacity:0.294" fill="#092851" d="M 216.5,11.5 C 217.167,11.5 217.833,11.5 218.5,11.5C 218.5,12.5 218.5,13.5 218.5,14.5C 217.833,14.5 217.5,14.8333 217.5,15.5C 217.802,18.0593 217.468,20.3926 216.5,22.5C 216.5,18.8333 216.5,15.1667 216.5,11.5 Z"/></g>
<g><path style="opacity:0.965" fill="#094391" d="M 83.5,11.5 C 87.0988,13.2629 89.9322,15.9295 92,19.5C 92.4974,16.854 92.6641,14.1873 92.5,11.5C 94.8568,11.3367 97.1902,11.5034 99.5,12C 100.856,14.3976 102.023,16.8976 103,19.5C 104.167,17.1667 105.333,14.8333 106.5,12.5C 108.743,11.5258 111.076,11.1924 113.5,11.5C 113.5,11.8333 113.5,12.1667 113.5,12.5C 112.2,14.223 111.533,16.3897 111.5,19C 111.533,21.6103 112.2,23.777 113.5,25.5C 113.5,25.8333 113.5,26.1667 113.5,26.5C 112.5,26.5 111.5,26.5 110.5,26.5C 110.666,22.1539 110.499,17.8206 110,13.5C 108.194,18.4455 105.861,23.1122 103,27.5C 100.878,23.6368 99.0451,19.6368 97.5,15.5C 97.5,14.8333 97.1667,14.5 96.5,14.5C 96.1667,13.1667 95.8333,13.1667 95.5,14.5C 95.5,18.5 95.5,22.5 95.5,26.5C 92.2689,24.7801 89.4356,22.4468 87,19.5C 86.5034,21.8098 86.3367,24.1432 86.5,26.5C 85.5,26.5 84.5,26.5 83.5,26.5C 83.5,21.5 83.5,16.5 83.5,11.5 Z"/></g>
<g><path style="opacity:0.02" fill="#000711" d="M 95.5,14.5 C 95.8333,14.5 96.1667,14.5 96.5,14.5C 97.1667,14.5 97.5,14.8333 97.5,15.5C 96.8333,19.1667 96.1667,22.8333 95.5,26.5C 95.5,22.5 95.5,18.5 95.5,14.5 Z"/></g>
<g><path style="opacity:1" fill="#0d5abb" d="M 214.5,11.5 C 215.167,11.5 215.833,11.5 216.5,11.5C 216.5,15.1667 216.5,18.8333 216.5,22.5C 214.586,19.3157 213.92,15.649 214.5,11.5 Z"/></g>
<g><path style="opacity:0.949" fill="#03367c" d="M 83.5,11.5 C 83.5,16.5 83.5,21.5 83.5,26.5C 79.8333,26.5 76.1667,26.5 72.5,26.5C 72.5408,22.7566 71.8741,22.5899 70.5,26C 67.1832,26.4983 63.8499,26.665 60.5,26.5C 60.5,23.8333 60.5,21.1667 60.5,18.5C 61.3138,20.631 61.8138,22.9644 62,25.5C 62.1981,23.6183 62.6981,21.9516 63.5,20.5C 63.5,21.5 63.5,22.5 63.5,23.5C 65.698,23.8799 67.3646,23.2132 68.5,21.5C 69.9063,21.0269 70.573,20.0269 70.5,18.5C 71.2216,18.9175 71.7216,19.5842 72,20.5C 72.498,17.5184 72.6646,14.5184 72.5,11.5C 76.1667,11.5 79.8333,11.5 83.5,11.5 Z M 63.5,20.5 C 65.4147,20.2155 67.0813,20.5489 68.5,21.5C 67.3646,23.2132 65.698,23.8799 63.5,23.5C 63.5,22.5 63.5,21.5 63.5,20.5 Z M 75.5,14.5 C 77.8333,14.5 80.1667,14.5 82.5,14.5C 82.5,17.5 82.5,20.5 82.5,23.5C 80.1667,23.5 77.8333,23.5 75.5,23.5C 75.5,22.5 75.5,21.5 75.5,20.5C 77.5,20.5 79.5,20.5 81.5,20.5C 81.5,19.5 81.5,18.5 81.5,17.5C 79.5,17.5 77.5,17.5 75.5,17.5C 75.5,16.5 75.5,15.5 75.5,14.5 Z"/></g>
<g><path style="opacity:0.986" fill="#064ca9" d="M 75.5,14.5 C 75.5,15.5 75.5,16.5 75.5,17.5C 77.5,17.5 79.5,17.5 81.5,17.5C 81.5,18.5 81.5,19.5 81.5,20.5C 79.5,20.5 77.5,20.5 75.5,20.5C 75.5,21.5 75.5,22.5 75.5,23.5C 77.2922,24.3091 79.2922,24.8091 81.5,25C 78.854,25.4974 76.1873,25.6641 73.5,25.5C 73.5,21.1667 73.5,16.8333 73.5,12.5C 76.1873,12.3359 78.854,12.5026 81.5,13C 79.2922,13.1909 77.2922,13.6909 75.5,14.5 Z"/></g>
<g><path style="opacity:0.958" fill="#0851af" d="M 113.5,12.5 C 113.5,16.8333 113.5,21.1667 113.5,25.5C 112.2,23.777 111.533,21.6103 111.5,19C 111.533,16.3897 112.2,14.223 113.5,12.5 Z"/></g>
<g><path style="opacity:0.507" fill="#042857" d="M 149.5,18.5 C 149.833,18.5 150.167,18.5 150.5,18.5C 150.5,19.5 150.5,20.5 150.5,21.5C 148.5,21.5 146.5,21.5 144.5,21.5C 146.531,21.0276 148.198,20.0276 149.5,18.5 Z"/></g>
<g><path style="opacity:0.958" fill="#053783" d="M 170.5,20.5 C 172.108,23.487 174.442,24.1536 177.5,22.5C 178.298,22.9569 178.631,23.6236 178.5,24.5C 178.5,25.1667 178.5,25.8333 178.5,26.5C 170.549,28.8526 166.549,25.8526 166.5,17.5C 167.15,17.1961 167.817,16.8627 168.5,16.5C 169.172,17.9492 169.839,19.2825 170.5,20.5 Z"/></g>
<g><path style="opacity:1" fill="#05439a" d="M 180.5,11.5 C 181.5,11.5 182.5,11.5 183.5,11.5C 183.5,15.5 183.5,19.5 183.5,23.5C 185.369,24.1646 187.369,24.8313 189.5,25.5C 186.572,26.4841 183.572,26.8174 180.5,26.5C 180.5,21.5 180.5,16.5 180.5,11.5 Z"/></g>
<g><path style="opacity:0.92" fill="#08428f" d="M 203.5,15.5 C 203.5,17.8333 203.5,20.1667 203.5,22.5C 201.641,26.9256 198.308,28.4256 193.5,27C 192.584,26.7216 191.918,26.2216 191.5,25.5C 191.167,24.5 190.5,23.8333 189.5,23.5C 189.5,23.1667 189.5,22.8333 189.5,22.5C 189.686,15.1125 190.686,14.7792 192.5,21.5C 196.146,24.5885 198.813,23.9218 200.5,19.5C 200.065,14.8103 197.732,13.477 193.5,15.5C 192.391,15.4431 191.391,15.1098 190.5,14.5C 193.74,9.72574 197.74,9.22574 202.5,13C 203.252,13.6708 203.586,14.5041 203.5,15.5 Z"/></g>
<g><path style="opacity:1" fill="#05367a" d="M 214.5,11.5 C 213.92,15.649 214.586,19.3157 216.5,22.5C 216.5,22.8333 216.5,23.1667 216.5,23.5C 216.5,25.5 215.5,26.5 213.5,26.5C 211.673,25.3088 210.007,23.9755 208.5,22.5C 210.01,23.7279 211.51,23.7279 213,22.5C 213.177,18.6437 213.677,14.977 214.5,11.5 Z"/></g>
<g><path style="opacity:0.998" fill="#094ea9" d="M 45.5,20.5 C 45.1231,22.258 44.4565,23.9246 43.5,25.5C 48.7582,29.9366 51.0915,35.6033 50.5,42.5C 49.71,43.6085 49.21,44.9419 49,46.5C 47.179,44.713 45.0123,43.3797 42.5,42.5C 41.914,42.7093 41.414,43.0426 41,43.5C 40.7599,41.1484 39.9265,39.1484 38.5,37.5C 37.4613,35.4689 35.7946,34.1355 33.5,33.5C 24.6822,32.5067 15.6822,32.1734 6.5,32.5C 6.5,29.5 6.5,26.5 6.5,23.5C 14.3516,23.8254 22.0182,23.492 29.5,22.5C 31.5,21.1667 33.1667,19.5 34.5,17.5C 35.2481,19.7349 36.0814,19.4016 37,16.5C 38.743,18.227 40.5764,18.8936 42.5,18.5C 43.2508,19.376 43.7508,20.376 44,21.5C 44.3826,20.944 44.8826,20.6107 45.5,20.5 Z"/></g>
<g><path style="opacity:1" fill="#023d8e" d="M 128.5,17.5 C 129.103,23.6506 131.936,24.984 137,21.5C 137.49,20.2068 137.657,18.8734 137.5,17.5C 138.1,18.9002 139.1,19.9002 140.5,20.5C 137.756,27.9895 133.09,29.3228 126.5,24.5C 122.806,28.1136 118.806,28.4469 114.5,25.5C 114.5,24.8333 114.5,24.1667 114.5,23.5C 116.227,22.5663 118.061,22.5663 120,23.5C 121.376,23.3158 122.209,22.6491 122.5,21.5C 123.542,20.2089 124.708,20.2089 126,21.5C 126.202,19.7444 126.702,18.0777 127.5,16.5C 128.107,16.6236 128.44,16.9569 128.5,17.5 Z"/></g>
<g><path style="opacity:0.937" fill="#154ca5" d="M 228.5,14.5 C 229.167,14.8333 229.833,15.1667 230.5,15.5C 230.5,17.8333 230.5,20.1667 230.5,22.5C 229.237,24.8075 227.237,26.1408 224.5,26.5C 222.5,26.5 220.5,26.5 218.5,26.5C 218.5,22.8333 218.5,19.1667 218.5,15.5C 220.098,17.8567 221.098,20.5234 221.5,23.5C 222.5,23.5 223.5,23.5 224.5,23.5C 225.496,23.5858 226.329,23.2524 227,22.5C 227.183,19.6353 227.683,16.9686 228.5,14.5 Z"/></g>
<g><path style="opacity:1" fill="#053e8c" d="M 205.5,11.5 C 206.5,11.5 207.5,11.5 208.5,11.5C 208.5,15.1667 208.5,18.8333 208.5,22.5C 210.007,23.9755 211.673,25.3088 213.5,26.5C 212.054,27.6129 210.387,27.7796 208.5,27C 206.574,26.5776 205.574,25.4109 205.5,23.5C 205.5,19.5 205.5,15.5 205.5,11.5 Z"/></g>
<g><path style="opacity:0.047" fill="#001a41" d="M 183.5,23.5 C 185.5,23.5 187.5,23.5 189.5,23.5C 190.5,23.8333 191.167,24.5 191.5,25.5C 188.169,27.2976 184.502,27.9643 180.5,27.5C 180.5,27.1667 180.5,26.8333 180.5,26.5C 183.572,26.8174 186.572,26.4841 189.5,25.5C 187.369,24.8313 185.369,24.1646 183.5,23.5 Z"/></g>
<g><path style="opacity:0.297" fill="#042d64" d="M 29.5,22.5 C 22.0182,23.492 14.3516,23.8254 6.5,23.5C 6.5,26.5 6.5,29.5 6.5,32.5C 15.6822,32.1734 24.6822,32.5067 33.5,33.5C 24.1667,33.5 14.8333,33.5 5.5,33.5C 5.5,29.8333 5.5,26.1667 5.5,22.5C 13.5,22.5 21.5,22.5 29.5,22.5 Z"/></g>
<g><path style="opacity:0.599" fill="#0a3b74" d="M 109.5,32.5 C 114.167,32.5 118.833,32.5 123.5,32.5C 123.5,33.5 123.5,34.5 123.5,35.5C 123.167,35.5 122.833,35.5 122.5,35.5C 121.167,35.5 119.833,35.5 118.5,35.5C 118.167,35.5 117.833,35.5 117.5,35.5C 118.609,34.71 119.942,34.21 121.5,34C 113.477,33.2763 111.477,33.443 115.5,34.5C 115.5,38.8333 115.5,43.1667 115.5,47.5C 115.167,47.5 114.833,47.5 114.5,47.5C 114.5,43.5 114.5,39.5 114.5,35.5C 113.167,35.5 111.833,35.5 110.5,35.5C 110.81,38.7131 110.477,41.7131 109.5,44.5C 109.5,40.5 109.5,36.5 109.5,32.5 Z"/></g>
<g><path style="opacity:0.561" fill="#0f2e60" d="M 101.5,43.5 C 99.8598,40.5122 99.0265,37.1789 99,33.5C 98.5012,37.4862 98.3345,41.4862 98.5,45.5C 98.1667,45.5 97.8333,45.5 97.5,45.5C 94.9407,45.8016 92.6074,45.4682 90.5,44.5C 92.8333,44.5 95.1667,44.5 97.5,44.5C 97.5,40.5 97.5,36.5 97.5,32.5C 98.8333,32.5 100.167,32.5 101.5,32.5C 101.5,36.1667 101.5,39.8333 101.5,43.5 Z"/></g>
<g><path style="opacity:0.133" fill="#0b1d37" d="M 157.5,33.5 C 158.833,35.5 158.833,37.5 157.5,39.5C 156.167,37.5 156.167,35.5 157.5,33.5 Z"/></g>
<g><path style="opacity:0.969" fill="#083f8c" d="M 90.5,44.5 C 92.6074,45.4682 94.9407,45.8016 97.5,45.5C 97.5,46.5 97.5,47.5 97.5,48.5C 94.1667,48.5 90.8333,48.5 87.5,48.5C 87.6633,46.1432 87.4966,43.8098 87,41.5C 83.9273,48.9508 79.0939,50.2842 72.5,45.5C 71.7348,46.6119 70.7348,47.2786 69.5,47.5C 67.396,47.7989 65.396,47.4656 63.5,46.5C 64.9492,45.8281 66.2825,45.1614 67.5,44.5C 68.8333,43.8333 68.8333,43.1667 67.5,42.5C 65.871,40.8041 66.2043,39.8041 68.5,39.5C 68.8333,39.5 69.1667,39.5 69.5,39.5C 70.9881,42.1864 71.6547,41.8531 71.5,38.5C 72.9166,32.4764 76.9166,30.6431 83.5,33C 85.4875,34.3189 86.6541,36.1523 87,38.5C 87.4955,36.5273 87.6621,34.5273 87.5,32.5C 88.8333,32.5 90.1667,32.5 91.5,32.5C 91.7633,36.6002 91.4299,40.6002 90.5,44.5 Z M 77.5,35.5 C 83.3347,36.333 84.6681,39.1663 81.5,44C 76.5023,45.3297 74.3357,43.4964 75,38.5C 75.6979,37.3094 76.5313,36.3094 77.5,35.5 Z"/></g>
<g><path style="opacity:0.133" fill="#042550" d="M 125.5,32.5 C 126.167,34.1667 126.833,35.8333 127.5,37.5C 127.5,39.5 127.5,41.5 127.5,43.5C 126.549,44.9187 126.216,46.5853 126.5,48.5C 125.167,48.5 123.833,48.5 122.5,48.5C 122.5,44.1667 122.5,39.8333 122.5,35.5C 122.833,35.5 123.167,35.5 123.5,35.5C 123.176,39.5546 123.509,43.5546 124.5,47.5C 125.494,42.544 125.827,37.544 125.5,32.5 Z"/></g>
<g><path style="opacity:0.106" fill="#041730" d="M 143.5,32.5 C 143.173,37.544 143.506,42.544 144.5,47.5C 145.167,44.8333 145.833,42.1667 146.5,39.5C 147.107,39.6236 147.44,39.9569 147.5,40.5C 146.527,42.9479 146.194,45.6146 146.5,48.5C 145.167,48.5 143.833,48.5 142.5,48.5C 142.784,46.5853 142.451,44.9187 141.5,43.5C 142.833,41.1667 142.833,38.8333 141.5,36.5C 142.167,35.1667 142.833,33.8333 143.5,32.5 Z"/></g>
<g><path style="opacity:1" fill="#0a3e82" d="M 68.5,39.5 C 66.2043,39.8041 65.871,40.8041 67.5,42.5C 63.0129,41.5319 60.6796,39.0319 60.5,35C 63.2005,31.2599 66.5338,30.5932 70.5,33C 71.8333,34 71.8333,35 70.5,36C 68.4731,35.5022 66.4731,35.6689 64.5,36.5C 65.9014,37.5207 67.2347,38.5207 68.5,39.5 Z"/></g>
<g><path style="opacity:0.027" fill="#051124" d="M 71.5,38.5 C 71.6547,41.8531 70.9881,42.1864 69.5,39.5C 70.1667,39.1667 70.8333,38.8333 71.5,38.5 Z"/></g>
<g><path style="opacity:1" fill="#0a56b8" d="M 123.5,32.5 C 124.167,32.5 124.833,32.5 125.5,32.5C 125.827,37.544 125.494,42.544 124.5,47.5C 123.509,43.5546 123.176,39.5546 123.5,35.5C 123.5,34.5 123.5,33.5 123.5,32.5 Z"/></g>
<g><path style="opacity:1" fill="#007cff" d="M -0.5,39.5 C 1.16667,39.5 2.83333,39.5 4.5,39.5C 4.5,40.8333 4.5,42.1667 4.5,43.5C 2.83333,43.5 1.16667,43.5 -0.5,43.5C -0.5,42.1667 -0.5,40.8333 -0.5,39.5 Z"/></g>
<g><path style="opacity:0.486" fill="#00428f" d="M -0.5,39.5 C -0.5,39.1667 -0.5,38.8333 -0.5,38.5C 1.5,38.5 3.5,38.5 5.5,38.5C 5.5,40.5 5.5,42.5 5.5,44.5C 3.5,44.5 1.5,44.5 -0.5,44.5C -0.5,44.1667 -0.5,43.8333 -0.5,43.5C 1.16667,43.5 2.83333,43.5 4.5,43.5C 4.5,42.1667 4.5,40.8333 4.5,39.5C 2.83333,39.5 1.16667,39.5 -0.5,39.5 Z"/></g>
<g><path style="opacity:1" fill="#0b4fa7" d="M 6.5,38.5 C 14.1739,38.3336 21.8406,38.5003 29.5,39C 30.8009,40.6155 30.8009,42.1155 29.5,43.5C 21.8333,43.5 14.1667,43.5 6.5,43.5C 6.5,41.8333 6.5,40.1667 6.5,38.5 Z"/></g>
<g><path style="opacity:0.915" fill="#0b4fa6" d="M 143.5,32.5 C 144.239,32.369 144.906,32.5357 145.5,33C 147.293,35.7953 149.46,38.2953 152,40.5C 152.497,37.854 152.664,35.1873 152.5,32.5C 153.5,32.5 154.5,32.5 155.5,32.5C 155.666,37.8437 155.499,43.1771 155,48.5C 152.295,45.9638 149.795,43.2971 147.5,40.5C 147.44,39.9569 147.107,39.6236 146.5,39.5C 145.833,42.1667 145.167,44.8333 144.5,47.5C 143.506,42.544 143.173,37.544 143.5,32.5 Z"/></g>
<g><path style="opacity:0.925" fill="#0953b3" d="M 107.5,32.5 C 108.167,32.5 108.833,32.5 109.5,32.5C 109.5,36.5 109.5,40.5 109.5,44.5C 108.883,44.3893 108.383,44.056 108,43.5C 107.501,39.8484 107.335,36.1817 107.5,32.5 Z"/></g>
<g><path style="opacity:0.112" fill="#010c1b" d="M 117.5,35.5 C 117.833,35.5 118.167,35.5 118.5,35.5C 118.5,39.8333 118.5,44.1667 118.5,48.5C 116.901,48.7678 115.568,48.4345 114.5,47.5C 114.833,47.5 115.167,47.5 115.5,47.5C 117.423,43.9707 118.089,39.9707 117.5,35.5 Z"/></g>
<g><path style="opacity:0.999" fill="#094392" d="M 141.5,36.5 C 142.833,38.8333 142.833,41.1667 141.5,43.5C 140.488,46.8529 138.154,48.5195 134.5,48.5C 130.846,48.5195 128.512,46.8529 127.5,43.5C 127.5,41.5 127.5,39.5 127.5,37.5C 130.446,31.5772 134.779,30.4105 140.5,34C 141.252,34.6708 141.586,35.5041 141.5,36.5 Z M 132.5,35.5 C 138.263,35.7827 139.93,38.616 137.5,44C 133.777,45.3121 131.444,44.1454 130.5,40.5C 130.437,38.4861 131.103,36.8194 132.5,35.5 Z"/></g>
<g><path style="opacity:0.669" fill="#092558" d="M 5.5,38.5 C 5.83333,38.5 6.16667,38.5 6.5,38.5C 6.5,40.1667 6.5,41.8333 6.5,43.5C 14.1667,43.5 21.8333,43.5 29.5,43.5C 21.6841,44.4924 13.6841,44.8257 5.5,44.5C 5.5,42.5 5.5,40.5 5.5,38.5 Z"/></g>
<g><path style="opacity:1" fill="#024198" d="M 101.5,43.5 C 101.5,44.1667 101.833,44.5 102.5,44.5C 104.076,45.1429 105.41,46.1429 106.5,47.5C 103.282,49.1839 100.615,48.5172 98.5,45.5C 98.3345,41.4862 98.5012,37.4862 99,33.5C 99.0265,37.1789 99.8598,40.5122 101.5,43.5 Z"/></g>
<g><path style="opacity:0.936" fill="#052f6d" d="M 107.5,32.5 C 107.335,36.1817 107.501,39.8484 108,43.5C 108.383,44.056 108.883,44.3893 109.5,44.5C 109.5,46.5 108.5,47.5 106.5,47.5C 105.41,46.1429 104.076,45.1429 102.5,44.5C 103.822,44.67 104.989,44.3366 106,43.5C 106.177,39.6437 106.677,35.977 107.5,32.5 Z"/></g>
<g><path style="opacity:0.927" fill="#0b3d86" d="M 157.5,39.5 C 158.833,37.5 158.833,35.5 157.5,33.5C 160.261,31.06 163.261,30.8934 166.5,33C 167.833,34 167.833,35 166.5,36C 164.413,35.7821 162.413,35.9488 160.5,36.5C 162.322,38.0101 164.322,39.3434 166.5,40.5C 169.283,43.342 168.95,45.842 165.5,48C 163.167,48.6667 160.833,48.6667 158.5,48C 156.408,47.0475 156.075,45.7141 157.5,44C 159.769,44.3744 162.102,44.3744 164.5,44C 162.102,42.4758 159.769,40.9758 157.5,39.5 Z"/></g>
<g><path style="opacity:0.957" fill="#0951b1" d="M 117.5,35.5 C 118.089,39.9707 117.423,43.9707 115.5,47.5C 115.5,43.1667 115.5,38.8333 115.5,34.5C 111.477,33.443 113.477,33.2763 121.5,34C 119.942,34.21 118.609,34.71 117.5,35.5 Z"/></g>
<g><path style="opacity:0.612" fill="#07265a" d="M 67.5,44.5 C 66.2825,45.1614 64.9492,45.8281 63.5,46.5C 65.396,47.4656 67.396,47.7989 69.5,47.5C 66.5308,49.0063 63.6975,48.673 61,46.5C 60.3987,45.0347 60.8987,44.0347 62.5,43.5C 64.0709,44.3094 65.7376,44.6427 67.5,44.5 Z"/></g>
<g><path style="opacity:0.505" fill="#00265c" d="M 35.5,48.5 C 35.3893,49.1174 35.056,49.6174 34.5,50C 25.1726,50.4998 15.8393,50.6665 6.5,50.5C 6.5,53.5 6.5,56.5 6.5,59.5C 6.16667,59.5 5.83333,59.5 5.5,59.5C 5.5,56.1667 5.5,52.8333 5.5,49.5C 15.5522,49.7838 25.5522,49.4504 35.5,48.5 Z"/></g>
<g><path style="opacity:0.989" fill="#02409b" d="M 38.5,37.5 C 39.9265,39.1484 40.7599,41.1484 41,43.5C 41.414,43.0426 41.914,42.7093 42.5,42.5C 45.0123,43.3797 47.179,44.713 49,46.5C 49.21,44.9419 49.71,43.6085 50.5,42.5C 50.1571,50.8834 46.1571,56.5501 38.5,59.5C 27.8333,59.5 17.1667,59.5 6.5,59.5C 6.5,56.5 6.5,53.5 6.5,50.5C 15.8393,50.6665 25.1726,50.4998 34.5,50C 35.056,49.6174 35.3893,49.1174 35.5,48.5C 36.4687,47.6906 37.3021,46.6906 38,45.5C 38.4974,42.854 38.6641,40.1873 38.5,37.5 Z"/></g>
</svg>
